<?xml version="1.0" encoding="UTF-8" standalone="no"?>
<svg
   xmlns="http://www.w3.org/2000/svg" version="1.0"
   width="444" height="67" viewBox="0 0 444 67">
  <g
     transform="translate(-62,-62)"
     font-family="Sans" font-size="12pt"
     stroke-linecap="round">
    <path style="stroke:black;stroke-width:1;fill:none"
       d="M 487,102 L 466,115 L 444,102 L 418,102 L 396,115 L 374,102 L 349,102 L 327,115 L 305,102 L 280,102 L 258,115 L 236,102 L 214,115 L 192,102 L 170,115 L 148,102 L 126,115 L 104,102 L 89,111 M 302,108 L 283,108 M 102,102 L 102,82 M 106,102 L 106,82 M 371,108 L 352,108 M 440,108 L 421,108"/>
    <g style="fill:red;font-size:8pt">
      <text x="301" y="98">9</text>
      <text x="370" y="98">6</text>
      <text x="439" y="98">3</text>
      <text x="483" y="98">1</text>
      <text x="492" y="104">ω</text>
    </g>
    <g style="fill:blue;font-size:8pt">
      <text x="102" y="118">1</text>
      <text x="123" y="111">α</text>
      <text x="276" y="118">9</text>
      <text x="345" y="118">12</text>
      <text x="414" y="118">15</text>
      <text x="486" y="118">18</text>
    </g>
    <text x="104" y="80" style="text-align:center;text-anchor:middle;fill:black">O</text>
    <text x="87" y="118" style="text-align:end;text-anchor:end;fill:black;font-family:Sans">HO</text>
  </g>
</svg>
